<?xml version="1.0" standalone="no"?>
<!DOCTYPE svg PUBLIC "-//W3C//DTD SVG 20010904//EN"
 "http://www.w3.org/TR/2001/REC-SVG-20010904/DTD/svg10.dtd">
<svg version="1.0" xmlns="http://www.w3.org/2000/svg"
 width="500.000000pt" height="500.000000pt" viewBox="0 0 500.000000 500.000000"
 preserveAspectRatio="xMidYMid meet">

<g transform="translate(0.000000,500.000000) scale(0.100000,-0.100000)"
fill="#000000" stroke="none">
<path d="M1350 4245 l0 -75 110 0 110 0 0 75 0 75 -110 0 -110 0 0 -75z"/>
<path d="M2830 4245 l0 -75 110 0 110 0 0 75 0 75 -110 0 -110 0 0 -75z"/>
<path d="M1650 3730 l0 -540 115 0 115 0 0 540 0 540 -115 0 -115 0 0 -540z"/>
<path d="M4080 4165 l0 -106 -28 21 c-72 53 -178 44 -239 -22 -46 -49 -52 -82
-59 -344 -9 -373 10 -474 99 -515 80 -36 165 -18 202 44 l20 32 3 -42 3 -43
110 0 109 0 0 540 0 540 -110 0 -110 0 0 -105z m-7 -275 c10 -41 4 -488 -7
-512 -13 -29 -46 -33 -70 -9 -20 21 -21 32 -24 255 -4 245 4 311 36 319 27 6
55 -17 65 -53z"/>
<path d="M400 4165 l0 -95 -30 0 -30 0 0 -85 0 -85 29 0 30 0 3 -318 c3 -288
5 -321 21 -346 29 -43 79 -59 164 -53 40 3 77 8 83 12 5 3 10 39 10 80 l0 74
-27 -2 -28 -2 -3 278 -2 277 30 0 30 0 0 85 0 85 -30 0 -30 0 0 95 0 95 -110
0 -110 0 0 -95z"/>
<path d="M939 4110 c-125 -15 -190 -85 -192 -208 l-2 -67 101 -3 101 -3 6 47
c13 123 97 83 97 -47 l0 -47 -92 -31 c-110 -37 -147 -58 -181 -103 -34 -45
-47 -98 -47 -195 0 -107 15 -176 48 -215 70 -82 197 -75 252 14 l20 33 0 -47
0 -48 111 0 110 0 -3 383 -3 384 -30 49 c-52 83 -158 121 -296 104z m101 -588
c0 -153 -5 -172 -42 -172 -38 0 -50 42 -46 155 3 106 3 107 36 136 18 16 37
29 42 29 6 0 10 -58 10 -148z"/>
<path d="M3460 4109 c-36 -8 -89 -59 -92 -89 0 -8 -4 8 -7 35 l-6 50 -107 3
-108 3 0 -461 0 -460 110 0 110 0 0 349 c0 192 4 361 9 374 13 33 47 41 72 16
18 -18 19 -37 19 -379 l0 -360 111 0 110 0 -3 393 -3 393 -25 48 c-36 70 -110
103 -190 85z"/>
<path d="M1350 3650 l0 -460 110 0 110 0 -2 458 -3 457 -107 3 -108 3 0 -461z"/>
<path d="M1950 4100 c0 -14 99 -828 106 -872 l6 -38 118 0 c105 0 119 2 123
18 3 9 15 114 28 232 12 118 25 218 28 223 4 4 20 -101 36 -233 l29 -241 111
3 110 3 57 440 c31 242 57 448 58 458 0 16 -10 17 -102 15 l-103 -3 -26 -235
c-15 -129 -27 -232 -28 -227 0 4 -12 96 -26 205 -14 108 -28 212 -30 230 l-6
32 -94 0 c-52 0 -95 -1 -95 -3 0 -16 -51 -461 -53 -463 -1 -2 -15 99 -31 224
-15 124 -30 230 -32 234 -7 12 -184 10 -184 -2z"/>
<path d="M2837 4103 c-4 -3 -7 -210 -7 -460 l0 -453 110 0 110 0 0 460 0 460
-103 0 c-57 0 -107 -3 -110 -7z"/>
<path d="M2550 3065 l0 -75 110 0 110 0 0 75 0 75 -110 0 -110 0 0 -75z"/>
<path d="M990 2550 l0 -540 110 0 110 0 0 540 0 540 -110 0 -110 0 0 -540z"/>
<path d="M675 2928 c-21 -5 -49 -18 -61 -29 l-22 -21 -4 24 c-3 22 -6 23 -110
26 l-108 3 0 -551 0 -550 110 0 110 0 0 104 0 104 37 -19 c48 -24 126 -24 179
0 34 15 47 30 70 77 l29 59 3 282 c4 301 -2 367 -41 424 -40 59 -113 85 -192
67z m6 -198 c13 -48 10 -503 -4 -530 -17 -33 -51 -37 -71 -8 -14 19 -16 59
-16 270 0 278 4 301 54 296 22 -2 32 -9 37 -28z"/>
<path d="M2063 2929 c-60 -11 -88 -33 -114 -92 -23 -50 -24 -60 -24 -317 0
-264 0 -266 25 -314 38 -74 67 -91 155 -91 68 0 76 2 104 29 l31 30 0 -42 c0
-29 -7 -49 -24 -69 -22 -25 -30 -28 -88 -27 -45 0 -75 6 -105 22 l-42 22 -35
-63 -36 -62 25 -22 c44 -39 124 -56 249 -51 173 5 238 48 271 174 13 50 15
127 13 465 l-3 404 -110 0 -110 0 -3 -32 -3 -32 -27 30 c-32 36 -85 49 -149
38z m161 -181 c13 -19 16 -59 16 -234 0 -196 -1 -212 -19 -228 -30 -27 -59
-12 -72 36 -16 60 -8 410 10 431 19 24 47 21 65 -5z"/>
<path d="M3180 2929 c-36 -8 -89 -59 -92 -89 0 -8 -4 8 -7 35 l-6 50 -107 3
-108 3 0 -461 0 -460 110 0 110 0 0 349 c0 192 4 361 9 374 13 33 47 41 72 16
18 -18 19 -37 19 -379 l0 -360 111 0 110 0 -3 393 -3 393 -25 48 c-36 70 -110
103 -190 85z"/>
<path d="M1302 2528 c3 -380 4 -405 23 -442 29 -57 64 -79 133 -84 73 -5 114
14 141 66 l20 37 1 -47 0 -48 110 0 110 0 -2 458 -3 457 -107 3 -107 3 -3
-364 c-3 -380 -5 -397 -47 -397 -46 1 -46 -2 -51 387 l-5 368 -108 3 -108 3 3
-403z"/>
<path d="M2557 2923 c-4 -3 -7 -210 -7 -460 l0 -453 110 0 110 0 0 460 0 460
-103 0 c-57 0 -107 -3 -110 -7z"/>
<path d="M1590 1370 l0 -540 115 0 115 0 0 540 0 540 -115 0 -115 0 0 -540z"/>
<path d="M2550 1805 l0 -95 -30 0 -30 0 0 -85 0 -85 30 0 30 0 0 -305 c0 -348
4 -370 68 -401 28 -13 52 -15 115 -11 44 3 83 9 89 15 5 5 8 40 6 78 -3 64 -5
69 -26 69 -12 0 -27 7 -32 15 -6 9 -10 128 -10 277 l0 262 33 3 32 3 3 83 3
82 -36 0 -35 0 0 95 0 95 -105 0 -105 0 0 -95z"/>
<path d="M2930 1805 l0 -95 -30 0 -30 0 0 -85 0 -85 29 0 30 0 3 -318 c3 -288
5 -321 21 -346 29 -43 79 -59 164 -53 40 3 77 8 83 12 5 3 10 39 10 80 l0 74
-27 -2 -28 -2 -3 278 -2 277 30 0 30 0 0 85 0 85 -30 0 -30 0 0 95 0 95 -110
0 -110 0 0 -95z"/>
<path d="M675 1748 c-21 -5 -49 -18 -61 -29 l-22 -21 -4 24 c-3 22 -6 23 -110
26 l-108 3 0 -551 0 -550 110 0 110 0 0 104 0 104 37 -19 c48 -24 126 -24 179
0 34 15 47 30 70 77 l29 59 3 282 c4 301 -2 367 -41 424 -40 59 -113 85 -192
67z m6 -198 c13 -48 10 -503 -4 -530 -17 -33 -51 -37 -71 -8 -14 19 -16 59
-16 270 0 278 4 301 54 296 22 -2 32 -9 37 -28z"/>
<path d="M1183 1749 c-131 -17 -193 -87 -193 -219 l0 -61 103 3 102 3 6 48 c7
66 43 88 73 45 10 -14 16 -44 16 -84 l0 -61 -92 -33 c-161 -56 -198 -92 -220
-217 -22 -131 12 -279 74 -326 63 -47 176 -28 217 36 l21 32 0 -42 0 -43 110
0 110 0 0 378 c0 345 -2 380 -19 418 -44 96 -160 143 -308 123z m107 -577 c0
-108 -3 -142 -16 -160 -19 -27 -50 -29 -64 -3 -13 26 -13 213 1 244 10 21 53
56 72 57 4 0 7 -62 7 -138z"/>
<path d="M2115 1750 c-99 -14 -161 -56 -195 -132 -18 -39 -20 -68 -20 -314 0
-296 7 -345 57 -404 48 -58 96 -75 208 -75 83 1 107 4 141 22 82 43 116 112
129 261 l7 72 -111 0 -111 0 0 -67 c0 -79 -16 -117 -50 -121 -42 -6 -50 20
-50 155 l0 123 154 0 154 0 7 86 c9 105 -1 216 -24 269 -43 97 -155 145 -296
125z m86 -176 c8 -9 15 -52 17 -105 l4 -89 -57 0 -58 0 5 83 c3 46 11 94 17
105 14 26 53 29 72 6z"/>
<path d="M3485 1749 c-69 -10 -98 -22 -144 -64 -68 -62 -73 -92 -69 -407 l3
-273 30 -60 c45 -90 109 -125 231 -125 129 0 215 50 248 146 9 27 19 85 23
131 l6 83 -110 0 -111 0 -3 -85 c-4 -87 -12 -105 -49 -105 -40 0 -45 15 -48
150 l-4 130 161 0 161 0 0 133 c-1 149 -10 206 -45 259 -45 67 -163 105 -280
87z m92 -189 c7 -14 13 -60 13 -102 l0 -78 -50 0 -50 0 0 83 c0 59 4 89 16
105 20 29 54 25 71 -8z"/>
<path d="M4161 1044 c-60 -50 -60 -148 0 -198 24 -20 41 -26 80 -26 80 0 129
47 129 125 0 78 -49 125 -129 125 -39 0 -56 -6 -80 -26z"/>
</g>
</svg>
